<svg width="89" height="58" viewBox="0 0 89 58" fill="none" xmlns="http://www.w3.org/2000/svg">
<path d="M82.928 35.5608H88.568V36.6768H84.092V39.3168H88.088V40.4328H84.092V43.1208H88.736V44.2368H82.928V35.5608Z" fill="black"/>
<path d="M77.1473 35.5608C77.7793 35.5608 78.3193 35.6688 78.7673 35.8848C79.2153 36.0928 79.5593 36.3968 79.7993 36.7968C80.0473 37.1968 80.1713 37.6808 80.1713 38.2488C80.1713 38.5928 80.1193 38.9328 80.0153 39.2688C79.9113 39.5968 79.7433 39.8968 79.5113 40.1688C79.2873 40.4328 78.9913 40.6448 78.6233 40.8048C78.2553 40.9648 77.8073 41.0448 77.2793 41.0448H75.9953V44.2368H74.8313V35.5608H77.1473ZM77.2673 39.9288C77.6113 39.9288 77.8953 39.8728 78.1193 39.7608C78.3433 39.6488 78.5193 39.5088 78.6473 39.3408C78.7753 39.1648 78.8673 38.9808 78.9233 38.7888C78.9793 38.5968 79.0073 38.4248 79.0073 38.2728C79.0073 38.0968 78.9793 37.9168 78.9233 37.7328C78.8673 37.5408 78.7713 37.3688 78.6353 37.2168C78.5073 37.0568 78.3353 36.9288 78.1193 36.8328C77.9113 36.7288 77.6513 36.6768 77.3393 36.6768H75.9953V39.9288H77.2673Z" fill="black"/>
<path d="M63.0422 39.9048C63.0422 39.3048 63.1542 38.7408 63.3782 38.2128C63.6102 37.6768 63.9302 37.2048 64.3382 36.7968C64.7462 36.3808 65.2142 36.0568 65.7422 35.8248C66.2782 35.5848 66.8542 35.4648 67.4702 35.4648C68.0782 35.4648 68.6462 35.5848 69.1742 35.8248C69.7102 36.0568 70.1822 36.3808 70.5902 36.7968C71.0062 37.2048 71.3302 37.6768 71.5622 38.2128C71.7942 38.7408 71.9102 39.3048 71.9102 39.9048C71.9102 40.5208 71.7942 41.0968 71.5622 41.6328C71.3302 42.1688 71.0062 42.6408 70.5902 43.0488C70.1822 43.4488 69.7102 43.7648 69.1742 43.9968C68.6462 44.2208 68.0782 44.3328 67.4702 44.3328C66.8542 44.3328 66.2782 44.2208 65.7422 43.9968C65.2142 43.7728 64.7462 43.4608 64.3382 43.0608C63.9302 42.6608 63.6102 42.1928 63.3782 41.6568C63.1542 41.1208 63.0422 40.5368 63.0422 39.9048ZM64.2422 39.9168C64.2422 40.3728 64.3262 40.8008 64.4942 41.2008C64.6622 41.5928 64.8942 41.9408 65.1902 42.2448C65.4862 42.5488 65.8302 42.7888 66.2222 42.9648C66.6142 43.1328 67.0382 43.2168 67.4942 43.2168C67.9422 43.2168 68.3622 43.1328 68.7542 42.9648C69.1462 42.7888 69.4862 42.5488 69.7742 42.2448C70.0622 41.9408 70.2902 41.5928 70.4582 41.2008C70.6262 40.8008 70.7102 40.3688 70.7102 39.9048C70.7102 39.4488 70.6262 39.0208 70.4582 38.6208C70.2902 38.2128 70.0582 37.8568 69.7622 37.5528C69.4662 37.2488 69.1222 37.0128 68.7302 36.8448C68.3382 36.6688 67.9182 36.5808 67.4702 36.5808C67.0142 36.5808 66.5902 36.6688 66.1982 36.8448C65.8062 37.0208 65.4622 37.2608 65.1662 37.5648C64.8702 37.8688 64.6422 38.2248 64.4822 38.6328C64.3222 39.0328 64.2422 39.4608 64.2422 39.9168Z" fill="black"/>
<path d="M60.1228 35.5608V44.2368H58.9708V40.4328H54.4228V44.2368H53.2588V35.5608H54.4228V39.3288H58.9708V35.5608H60.1228Z" fill="black"/>
<path d="M45.3222 43.4928C45.2022 43.5968 45.0342 43.7008 44.8182 43.8048C44.6022 43.9008 44.3622 43.9888 44.0982 44.0688C43.8422 44.1488 43.5742 44.2128 43.2942 44.2608C43.0222 44.3088 42.7662 44.3328 42.5262 44.3328C41.8302 44.3328 41.2022 44.2248 40.6422 44.0088C40.0902 43.7928 39.6142 43.4928 39.2142 43.1088C38.8222 42.7248 38.5182 42.2728 38.3022 41.7528C38.0942 41.2328 37.9902 40.6688 37.9902 40.0608C37.9902 39.3408 38.1062 38.6968 38.3382 38.1288C38.5782 37.5528 38.9022 37.0688 39.3102 36.6768C39.7262 36.2768 40.2022 35.9768 40.7382 35.7768C41.2742 35.5688 41.8422 35.4648 42.4422 35.4648C42.9462 35.4648 43.4142 35.5248 43.8462 35.6448C44.2782 35.7648 44.6582 35.9168 44.9862 36.1008L44.5902 37.1688C44.4302 37.0728 44.2302 36.9848 43.9902 36.9048C43.7582 36.8248 43.5182 36.7608 43.2702 36.7128C43.0222 36.6568 42.7902 36.6288 42.5742 36.6288C42.0622 36.6288 41.5982 36.7088 41.1822 36.8688C40.7662 37.0208 40.4102 37.2448 40.1142 37.5408C39.8182 37.8288 39.5902 38.1808 39.4302 38.5968C39.2702 39.0048 39.1902 39.4648 39.1902 39.9768C39.1902 40.4488 39.2702 40.8808 39.4302 41.2728C39.5902 41.6648 39.8182 42.0048 40.1142 42.2928C40.4102 42.5728 40.7622 42.7928 41.1702 42.9528C41.5862 43.1048 42.0422 43.1808 42.5382 43.1808C42.8342 43.1808 43.1262 43.1528 43.4142 43.0968C43.7022 43.0328 43.9502 42.9448 44.1582 42.8328V41.1048H42.4302V39.9888H45.3222V43.4928Z" fill="black"/>
<path d="M35.0393 44.5128L28.3313 37.7088L28.6673 37.7928L28.6913 44.2368H27.5273V35.2968H27.5873L34.2233 42.1248L33.9473 42.0648L33.9233 35.5608H35.0753V44.5128H35.0393Z" fill="black"/>
<path d="M22.9111 35.5608H24.0751V44.2368H22.9111V35.5608Z" fill="black"/>
<path d="M13.9501 35.5608L16.8061 42.7368L16.1461 42.6048L18.8581 35.5608H20.2141L16.3861 44.6328L12.5701 35.5608H13.9501Z" fill="black"/>
<path d="M8.70996 35.5608H9.87396V44.2368H8.70996V35.5608Z" fill="black"/>
<path d="M0.285034 35.5608H1.44903V43.1208H5.85303V44.2368H0.285034V35.5608Z" fill="black"/>
<path d="M69.6647 51.6434C69.4222 51.5189 69.1568 51.4108 68.8685 51.319C68.5802 51.2273 68.2984 51.1814 68.0232 51.1814C67.6432 51.1814 67.3385 51.2699 67.1091 51.4468C66.8863 51.6237 66.7749 51.8596 66.7749 52.1545C66.7749 52.3773 66.847 52.5673 66.9912 52.7246C67.1353 52.8753 67.3254 53.0063 67.5613 53.1177C67.7972 53.2291 68.0429 53.334 68.2984 53.4323C68.5212 53.5175 68.7408 53.6125 68.957 53.7173C69.1732 53.8222 69.3665 53.9532 69.5369 54.1105C69.7138 54.2677 69.8514 54.4611 69.9497 54.6904C70.0546 54.9197 70.107 55.2048 70.107 55.5455C70.107 55.919 70.012 56.2598 69.8219 56.5678C69.6385 56.8757 69.3731 57.1182 69.0258 57.2951C68.6785 57.472 68.2657 57.5605 67.7873 57.5605C67.4728 57.5605 67.1714 57.5245 66.8831 57.4524C66.6013 57.3803 66.3392 57.2886 66.0967 57.1772C65.8543 57.0592 65.638 56.938 65.448 56.8135L65.8707 56.0665C66.0279 56.1779 66.2081 56.286 66.4113 56.3908C66.6144 56.4891 66.8273 56.571 67.0501 56.6366C67.2729 56.6955 67.4892 56.725 67.6989 56.725C67.9217 56.725 68.1412 56.6857 68.3574 56.6071C68.5802 56.5219 68.7637 56.3941 68.9078 56.2237C69.052 56.0534 69.1241 55.8273 69.1241 55.5455C69.1241 55.3031 69.0586 55.1032 68.9275 54.946C68.803 54.7821 68.6359 54.6445 68.4262 54.5331C68.2165 54.4152 67.9937 54.3103 67.7578 54.2186C67.535 54.1334 67.309 54.0417 67.0796 53.9434C66.8503 53.8385 66.6373 53.714 66.4407 53.5699C66.2442 53.4192 66.0869 53.2357 65.9689 53.0195C65.851 52.8032 65.792 52.5411 65.792 52.2331C65.792 51.8596 65.8805 51.5353 66.0574 51.26C66.2409 50.9783 66.4899 50.7588 66.8044 50.6015C67.1189 50.4377 67.4793 50.3492 67.8856 50.3361C68.3443 50.3361 68.7473 50.3918 69.0946 50.5032C69.4484 50.6146 69.7597 50.7522 70.0284 50.916L69.6647 51.6434Z" fill="black"/>
<path d="M58.7903 50.3754H63.41V51.2895H59.7437V53.4519H63.0168V54.366H59.7437V56.5677H63.5476V57.4819H58.7903V50.3754Z" fill="black"/>
<path d="M56.3986 56.9511C56.2807 57.0297 56.1201 57.1182 55.917 57.2165C55.7139 57.3147 55.4747 57.3967 55.1995 57.4622C54.9308 57.5277 54.6359 57.5605 54.3149 57.5605C53.7644 57.5539 53.2664 57.4556 52.8208 57.2656C52.3818 57.0756 52.0083 56.8167 51.7003 56.4891C51.3923 56.1615 51.1532 55.7847 50.9828 55.3588C50.819 54.9263 50.7371 54.4676 50.7371 53.9827C50.7371 53.4519 50.8222 52.9637 50.9926 52.5181C51.1695 52.066 51.4153 51.6761 51.7298 51.3485C52.0443 51.0143 52.4146 50.7555 52.8405 50.572C53.273 50.3885 53.7448 50.2968 54.2559 50.2968C54.6818 50.2968 55.0684 50.3557 55.4157 50.4737C55.763 50.5851 56.0612 50.7194 56.3102 50.8767L55.9268 51.7613C55.7302 51.6302 55.4911 51.5057 55.2093 51.3878C54.9341 51.2698 54.6261 51.2109 54.2854 51.2109C53.9381 51.2109 53.6104 51.2797 53.3025 51.4173C52.9945 51.5549 52.7225 51.7482 52.4866 51.9972C52.2507 52.2462 52.064 52.5378 51.9264 52.872C51.7953 53.1996 51.7298 53.5535 51.7298 53.9335C51.7298 54.3201 51.7888 54.6805 51.9067 55.0147C52.0312 55.3424 52.2049 55.6274 52.4277 55.8699C52.657 56.1123 52.9322 56.3023 53.2533 56.44C53.5744 56.5776 53.9348 56.6464 54.3345 56.6464C54.6949 56.6464 55.016 56.5907 55.2978 56.4793C55.5795 56.3679 55.8122 56.2434 55.9956 56.1058L56.3986 56.9511Z" fill="black"/>
<path d="M47.3982 50.3754H48.3516V57.4819H47.3982V50.3754Z" fill="black"/>
<path d="M40.0583 50.3754L42.3977 56.2532L41.8571 56.1451L44.0784 50.3754H45.1891L42.0536 57.8062L38.928 50.3754H40.0583Z" fill="black"/>
<path d="M34.4184 50.3754C34.7788 50.3754 35.1098 50.4246 35.4112 50.5228C35.7192 50.6146 35.9845 50.7555 36.2073 50.9455C36.4367 51.129 36.6136 51.3583 36.7381 51.6335C36.8692 51.9022 36.9347 52.2167 36.9347 52.5771C36.9347 52.8589 36.8921 53.1341 36.8069 53.4028C36.7283 53.6714 36.5939 53.9172 36.4039 54.14C36.2139 54.3562 35.9649 54.5331 35.6569 54.6707C35.3555 54.8018 34.982 54.8673 34.5364 54.8673H33.4847V57.4819H32.5312V50.3754H34.4184ZM34.5167 53.9532C34.7985 53.9532 35.0311 53.9106 35.2146 53.8254C35.4046 53.7402 35.5521 53.6321 35.6569 53.5011C35.7617 53.3635 35.8371 53.216 35.883 53.0588C35.9288 52.9015 35.9518 52.7541 35.9518 52.6164C35.9518 52.4723 35.9256 52.3249 35.8731 52.1741C35.8273 52.0169 35.7486 51.8727 35.6372 51.7417C35.5324 51.6106 35.3915 51.5025 35.2146 51.4173C35.0442 51.3321 34.8345 51.2895 34.5855 51.2895H33.4847V53.9532H34.5167ZM35.6864 54.4938L37.5441 57.4819H36.4432L34.556 54.5233L35.6864 54.4938Z" fill="black"/>
<path d="M25.333 50.3754H29.9527V51.2895H26.2864V53.4519H29.5595V54.366H26.2864V56.5677H30.0903V57.4819H25.333V50.3754Z" fill="black"/>
<path d="M22.5018 51.6434C22.2594 51.5189 21.994 51.4108 21.7057 51.319C21.4174 51.2273 21.1356 51.1814 20.8604 51.1814C20.4803 51.1814 20.1756 51.2699 19.9463 51.4468C19.7235 51.6237 19.6121 51.8596 19.6121 52.1545C19.6121 52.3773 19.6842 52.5673 19.8283 52.7246C19.9725 52.8753 20.1625 53.0063 20.3984 53.1177C20.6343 53.2291 20.88 53.334 21.1356 53.4323C21.3584 53.5175 21.5779 53.6125 21.7941 53.7173C22.0104 53.8222 22.2037 53.9532 22.3741 54.1105C22.551 54.2677 22.6886 54.4611 22.7869 54.6904C22.8917 54.9197 22.9442 55.2048 22.9442 55.5455C22.9442 55.919 22.8491 56.2598 22.6591 56.5678C22.4756 56.8757 22.2102 57.1182 21.8629 57.2951C21.5157 57.472 21.1028 57.5605 20.6245 57.5605C20.31 57.5605 20.0085 57.5245 19.7202 57.4524C19.4384 57.3803 19.1763 57.2886 18.9339 57.1772C18.6914 57.0592 18.4752 56.938 18.2852 56.8135L18.7078 56.0665C18.8651 56.1779 19.0453 56.286 19.2484 56.3908C19.4515 56.4891 19.6645 56.571 19.8873 56.6366C20.1101 56.6955 20.3263 56.725 20.536 56.725C20.7588 56.725 20.9783 56.6857 21.1946 56.6071C21.4174 56.5219 21.6008 56.3941 21.745 56.2237C21.8892 56.0534 21.9612 55.8273 21.9612 55.5455C21.9612 55.3031 21.8957 55.1032 21.7647 54.946C21.6402 54.7821 21.4731 54.6445 21.2634 54.5331C21.0537 54.4152 20.8309 54.3103 20.595 54.2186C20.3722 54.1334 20.1461 54.0417 19.9168 53.9434C19.6874 53.8385 19.4745 53.714 19.2779 53.5699C19.0813 53.4192 18.924 53.2357 18.8061 53.0195C18.6881 52.8032 18.6292 52.5411 18.6292 52.2331C18.6292 51.8596 18.7176 51.5353 18.8946 51.26C19.078 50.9783 19.327 50.7588 19.6416 50.6015C19.9561 50.4377 20.3165 50.3492 20.7228 50.3361C21.1815 50.3361 21.5845 50.3918 21.9318 50.5032C22.2856 50.6146 22.5969 50.7522 22.8655 50.916L22.5018 51.6434Z" fill="black"/>
<path fill-rule="evenodd" clip-rule="evenodd" d="M43.3371 6.26807C45.6791 7.38248 47.4139 10.2043 48.3291 13.0468C51.2608 12.4569 54.5923 12.5754 56.673 13.9402C56.9864 17.8771 53.167 22.5748 49.9977 24.4049C47.9267 25.6005 45.9494 25.674 43.9191 24.9596V29.1355C43.9189 29.4567 43.6584 29.7174 43.3371 29.7174C43.016 29.7173 42.7554 29.4566 42.7552 29.1355V24.9596C40.7249 25.6739 38.7476 25.6006 36.6766 24.4049C33.5073 22.5748 29.689 17.8771 30.0025 13.9402C32.0936 12.5689 35.4474 12.4559 38.3895 13.0559C39.3437 10.2192 41.1128 7.3889 43.3371 6.26807ZM36.1311 13.9163C34.2066 13.7737 32.4241 14.0012 31.1527 14.6221C31.2166 16.0754 31.9003 17.7252 32.9906 19.3004C34.2188 21.0748 35.8436 22.5796 37.2586 23.3967C38.4927 24.1093 39.6374 24.3393 40.7673 24.2321C41.1366 24.1971 41.5118 24.1213 41.8971 24.0128C41.7911 23.9516 41.683 23.891 41.5765 23.8264C41.4716 23.7626 41.377 23.6867 41.2867 23.607C39.0412 22.0703 37.6121 20.1135 37.6121 17.2807C37.6121 16.3483 37.7677 15.2793 38.0553 14.1766C37.4308 14.0534 36.7831 13.9646 36.1311 13.9163ZM55.5216 14.6221C54.2502 14.0012 52.4677 13.7737 50.5432 13.9163C49.9015 13.9639 49.2639 14.0507 48.6485 14.1709C48.9199 15.2719 49.0622 16.3419 49.0622 17.2807C49.0622 20.405 47.488 22.4377 44.8091 24.0219C45.1832 24.1255 45.5479 24.198 45.907 24.2321C47.0369 24.3393 48.1816 24.1092 49.4157 23.3967C50.8307 22.5797 52.4555 21.0747 53.6837 19.3004C54.774 17.7252 55.4577 16.0754 55.5216 14.6221ZM43.3371 16.7203C42.1817 18.0314 41.7452 19.8071 41.7493 22.0646C41.7499 22.2984 41.8405 22.5196 41.996 22.6841C42.2463 22.8532 42.5111 23.0172 42.7882 23.1796C42.872 23.2252 42.9554 23.2688 43.0382 23.3115C43.2071 23.3766 43.3896 23.3899 43.5633 23.3501C43.8667 23.1965 44.1773 23.0253 44.4942 22.833C44.7602 22.6714 44.9242 22.3795 44.925 22.0646C44.9291 19.807 44.4927 18.0314 43.3371 16.7203ZM47.5142 14.4357C46.4923 14.715 45.5732 15.0813 44.8545 15.4962C44.6191 15.6321 44.4001 15.778 44.1953 15.9315C45.523 17.4257 46.03 19.3788 46.0821 21.635C46.3814 21.3466 46.6449 21.05 46.8675 20.7371C47.5252 19.8121 47.8983 18.7057 47.8984 17.2807C47.8983 16.4384 47.767 15.4567 47.5142 14.4357ZM39.1897 14.4437C38.9199 15.4697 38.776 16.4498 38.7759 17.2807C38.776 19.0237 39.4126 20.3869 40.5934 21.5497C40.6562 19.3296 41.1682 17.4068 42.479 15.9315C42.2742 15.7781 42.0551 15.6321 41.8198 15.4962C41.108 15.0853 40.1998 14.7219 39.1897 14.4437ZM43.3519 7.60586C42.1786 8.39651 41.0899 9.82577 40.2513 11.5635C39.972 12.1422 39.7307 12.7376 39.5272 13.3298C40.6123 13.6309 41.6029 14.028 42.4017 14.4891C42.7411 14.6851 43.0522 14.8965 43.3371 15.1222C43.6221 14.8965 43.9332 14.6851 44.2726 14.4891C45.0825 14.0216 46.0898 13.6199 47.1925 13.3173C46.9957 12.7181 46.7594 12.1178 46.4844 11.5362C45.6654 9.80451 44.5785 8.3878 43.3519 7.60586Z" fill="black"/>
<path d="M34.5523 4.00282C34.7796 3.77555 35.148 3.77555 35.3752 4.00282L36.7926 5.42016C37.0198 5.64743 37.0198 6.0158 36.7926 6.24307C36.5653 6.47023 36.1969 6.4703 35.9697 6.24307L34.5523 4.82572C34.3251 4.59849 34.3252 4.23009 34.5523 4.00282Z" fill="black"/>
<path d="M51.9413 4.00282C52.1685 3.77555 52.5369 3.77555 52.7642 4.00282C52.9913 4.23009 52.9914 4.59849 52.7642 4.82572L51.3468 6.24307C51.1196 6.47029 50.7512 6.47022 50.5239 6.24307C50.2967 6.0158 50.2967 5.64743 50.5239 5.42016L51.9413 4.00282Z" fill="black"/>
<path d="M43.3371 0.100845C43.6584 0.100845 43.9188 0.361628 43.9191 0.682788V3.64819C43.9191 3.96959 43.6585 4.23014 43.3371 4.23014C43.0158 4.23003 42.7552 3.96952 42.7552 3.64819V0.682788C42.7555 0.361696 43.016 0.100956 43.3371 0.100845Z" fill="black"/>
</svg>
