<svg width="14" height="16" viewBox="0 0 14 16" fill="none" xmlns="http://www.w3.org/2000/svg">
<path fill-rule="evenodd" clip-rule="evenodd" d="M6.9997 2.92312C8.22737 3.54458 9.13678 5.11822 9.61656 6.70338C11.1534 6.37439 12.8998 6.4405 13.9905 7.20158C14.1548 9.39705 12.1526 12.0168 10.4912 13.0374C9.40561 13.7041 8.36909 13.7451 7.30477 13.3467V15.6755C7.30465 15.8546 7.16811 16 6.9997 16C6.83134 15.9999 6.69476 15.8546 6.69464 15.6755V13.3467C5.63033 13.7451 4.59379 13.7042 3.50817 13.0374C1.84677 12.0168 -0.154835 9.39705 0.00949196 7.20158C1.10569 6.43686 2.86379 6.37387 4.40608 6.70845C4.90628 5.12652 5.83366 3.54817 6.9997 2.92312ZM3.22218 7.18827C2.21335 7.10876 1.27896 7.23559 0.612466 7.58189C0.64596 8.39233 1.00438 9.31237 1.57591 10.1908C2.21976 11.1803 3.07148 12.0195 3.81323 12.4752C4.46019 12.8725 5.06022 13.0008 5.65254 12.9411C5.84615 12.9215 6.04283 12.8793 6.24479 12.8187C6.18925 12.7846 6.13259 12.7508 6.07677 12.7148C6.02178 12.6792 5.97216 12.6369 5.92484 12.5924C4.7477 11.7355 3.99854 10.6442 3.99854 9.06445C3.99857 8.54452 4.08012 7.94837 4.23091 7.33342C3.9035 7.26473 3.56397 7.21521 3.22218 7.18827ZM13.3869 7.58189C12.7204 7.23559 11.7861 7.10876 10.7772 7.18827C10.4408 7.2148 10.1066 7.26322 9.78399 7.33025C9.92628 7.94422 10.0008 8.54092 10.0009 9.06445C10.0009 10.8068 9.17566 11.9404 7.7713 12.8238C7.96744 12.8816 8.1586 12.922 8.34686 12.9411C8.93917 13.0008 9.53924 12.8725 10.1862 12.4752C10.9279 12.0195 11.7796 11.1803 12.4235 10.1908C12.995 9.31237 13.3534 8.39233 13.3869 7.58189ZM6.9997 8.75197C6.39399 9.48313 6.16516 10.4733 6.16734 11.7323C6.16763 11.8627 6.21513 11.9861 6.29663 12.0778C6.42787 12.1721 6.56665 12.2635 6.71192 12.3541C6.75584 12.3795 6.79959 12.4039 6.843 12.4276C6.93153 12.464 7.02718 12.4714 7.11827 12.4492C7.27728 12.3635 7.44014 12.2681 7.60625 12.1608C7.7457 12.0707 7.83167 11.9079 7.83207 11.7323C7.83424 10.4733 7.60546 9.48313 6.9997 8.75197ZM9.18936 7.47794C8.65366 7.63367 8.17188 7.83796 7.79513 8.06931C7.67171 8.14512 7.55693 8.22648 7.44955 8.31208C8.14554 9.14532 8.41132 10.2345 8.43862 11.4927C8.59556 11.3319 8.73365 11.1665 8.85033 10.992C9.19515 10.4762 9.39074 9.85916 9.39075 9.06445C9.39071 8.59474 9.32191 8.04731 9.18936 7.47794ZM4.82554 7.48237C4.68414 8.05453 4.60869 8.60112 4.60866 9.06445C4.60866 10.0365 4.9424 10.7967 5.56138 11.4452C5.59433 10.2071 5.86269 9.1348 6.54986 8.31208C6.4425 8.22651 6.32766 8.1451 6.20428 8.06931C5.83114 7.8402 5.35504 7.63753 4.82554 7.48237ZM7.00745 3.66915C6.39236 4.11007 5.82168 4.90712 5.38204 5.87621C5.23565 6.19891 5.10915 6.53095 5.0025 6.8612C5.57131 7.02912 6.09057 7.25056 6.50934 7.50773C6.68726 7.61701 6.85034 7.73488 6.9997 7.86078C7.14906 7.73488 7.31215 7.61701 7.49007 7.50773C7.91465 7.24699 8.44265 7.02297 9.02074 6.85423C8.91759 6.52009 8.79371 6.18531 8.64954 5.861C8.22021 4.89527 7.65044 4.10522 7.00745 3.66915Z" fill="black"/>
<path d="M2.39458 2.17599C2.51371 2.04926 2.70682 2.04926 2.82595 2.17599L3.56895 2.9664C3.68808 3.09314 3.68808 3.29857 3.56895 3.42531C3.44981 3.55199 3.25669 3.55202 3.13757 3.42531L2.39458 2.6349C2.27546 2.50818 2.27549 2.30274 2.39458 2.17599Z" fill="black"/>
<path d="M11.5101 2.17599C11.6292 2.04926 11.8223 2.04926 11.9415 2.17599C12.0606 2.30274 12.0606 2.50818 11.9415 2.6349L11.1985 3.42531C11.0794 3.55202 10.8862 3.55198 10.7671 3.42531C10.648 3.29857 10.648 3.09314 10.7671 2.9664L11.5101 2.17599Z" fill="black"/>
<path d="M6.9997 0C7.16809 -7.8303e-09 7.30462 0.145429 7.30477 0.324529V1.97823C7.30477 2.15747 7.16818 2.30276 6.9997 2.30276C6.83127 2.3027 6.69464 2.15743 6.69464 1.97823V0.324529C6.69479 0.145468 6.83136 6.17383e-05 6.9997 0Z" fill="black"/>
</svg>
