<svg width="122" height="16" viewBox="0 0 122 16" fill="none" xmlns="http://www.w3.org/2000/svg">
<path fill-rule="evenodd" clip-rule="evenodd" d="M6.9997 2.83177C8.22737 3.43381 9.13678 4.95827 9.61656 6.49389C11.1534 6.17519 12.8998 6.23923 13.9905 6.97653C14.1548 9.10339 12.1526 11.6413 10.4912 12.63C9.40561 13.2759 8.36909 13.3156 7.30476 12.9296V15.1856C7.30465 15.3591 7.16811 15.5 6.9997 15.5C6.83134 15.4999 6.69476 15.3591 6.69464 15.1856V12.9296C5.63033 13.3156 4.59379 13.2759 3.50817 12.63C1.84677 11.6413 -0.154835 9.10339 0.00949196 6.97653C1.10569 6.23571 2.86379 6.17468 4.40608 6.49881C4.90628 4.96631 5.83366 3.43728 6.9997 2.83177ZM3.22218 6.96363C2.21335 6.88661 1.27896 7.00948 0.612466 7.34495C0.645959 8.13007 1.00438 9.02136 1.57591 9.87233C2.21976 10.8309 3.07148 11.6439 3.81323 12.0853C4.46019 12.4703 5.06022 12.5945 5.65254 12.5366C5.84615 12.5177 6.04283 12.4768 6.24479 12.4181C6.18925 12.3851 6.13259 12.3524 6.07677 12.3174C6.02178 12.283 5.97216 12.242 5.92484 12.1989C4.7477 11.3688 3.99854 10.3116 3.99854 8.78119C3.99857 8.2775 4.08012 7.69998 4.23091 7.10425C3.9035 7.0377 3.56397 6.98974 3.22218 6.96363ZM13.3869 7.34495C12.7204 7.00948 11.7861 6.88661 10.7772 6.96363C10.4408 6.98933 10.1066 7.03624 9.78399 7.10118C9.92628 7.69596 10.0008 8.27402 10.0009 8.78119C10.0009 10.4691 9.17565 11.5672 7.7713 12.4231C7.96744 12.479 8.1586 12.5182 8.34686 12.5366C8.93917 12.5945 9.53924 12.4702 10.1862 12.0853C10.9279 11.6439 11.7796 10.8309 12.4235 9.87233C12.995 9.02136 13.3534 8.13007 13.3869 7.34495ZM6.9997 8.47847C6.39399 9.18678 6.16516 10.1461 6.16734 11.3657C6.16763 11.492 6.21513 11.6115 6.29663 11.7003C6.42787 11.7917 6.56665 11.8803 6.71192 11.968C6.75584 11.9926 6.79959 12.0162 6.843 12.0393C6.93153 12.0745 7.02718 12.0816 7.11827 12.0602C7.27727 11.9771 7.44014 11.8847 7.60625 11.7808C7.7457 11.6935 7.83167 11.5358 7.83207 11.3657C7.83424 10.146 7.60546 9.18679 6.9997 8.47847ZM9.18936 7.24425C8.65366 7.39512 8.17188 7.59302 7.79513 7.81715C7.67171 7.89058 7.55693 7.9694 7.44955 8.05232C8.14554 8.85953 8.41132 9.91467 8.43862 11.1336C8.59556 10.9777 8.73365 10.8175 8.85033 10.6485C9.19515 10.1488 9.39074 9.55106 9.39075 8.78119C9.39071 8.32616 9.32191 7.79583 9.18936 7.24425ZM4.82554 7.24855C4.68414 7.80283 4.60869 8.33233 4.60866 8.78119C4.60866 9.72285 4.94239 10.4593 5.56138 11.0875C5.59432 9.88811 5.86269 8.84934 6.54986 8.05232C6.4425 7.96943 6.32766 7.89056 6.20428 7.81715C5.83114 7.59519 5.35504 7.39886 4.82554 7.24855ZM7.00745 3.55449C6.39236 3.98163 5.82168 4.75377 5.38204 5.69257C5.23565 6.00519 5.10915 6.32686 5.0025 6.64679C5.57131 6.80945 6.09057 7.02398 6.50934 7.27311C6.68726 7.37898 6.85034 7.49317 6.9997 7.61513C7.14906 7.49316 7.31215 7.37898 7.49007 7.27311C7.91465 7.02052 8.44265 6.8035 9.02074 6.64004C8.91759 6.31634 8.79371 5.99202 8.64954 5.67784C8.22021 4.74229 7.65044 3.97693 7.00745 3.55449Z" fill="currentColor"/>
<path d="M2.39458 2.10799C2.51371 1.98522 2.70682 1.98522 2.82595 2.10799L3.56895 2.8737C3.68808 2.99648 3.68808 3.19549 3.56895 3.31826C3.44981 3.44099 3.25669 3.44102 3.13757 3.31826L2.39458 2.55256C2.27546 2.4298 2.27549 2.23077 2.39458 2.10799Z" fill="currentColor"/>
<path d="M11.5101 2.10799C11.6292 1.98522 11.8223 1.98522 11.9415 2.10799C12.0605 2.23077 12.0606 2.4298 11.9415 2.55256L11.1985 3.31826C11.0794 3.44102 10.8862 3.44098 10.7671 3.31826C10.648 3.19549 10.648 2.99648 10.7671 2.8737L11.5101 2.10799Z" fill="currentColor"/>
<path d="M6.9997 0C7.16809 -7.5856e-09 7.30462 0.140885 7.30476 0.314388V1.91641C7.30476 2.09005 7.16818 2.2308 6.9997 2.2308C6.83127 2.23074 6.69464 2.09001 6.69464 1.91641V0.314388C6.69479 0.140922 6.83136 5.9809e-05 6.9997 0Z" fill="currentColor"/>
<path d="M121.65 6.06655C121.458 5.96794 121.247 5.8823 121.019 5.80964C120.791 5.73698 120.567 5.70065 120.35 5.70065C120.048 5.70065 119.807 5.77072 119.625 5.91085C119.449 6.05098 119.361 6.23782 119.361 6.47138C119.361 6.64784 119.418 6.79835 119.532 6.92291C119.646 7.04228 119.797 7.14609 119.984 7.23432C120.17 7.32255 120.365 7.40559 120.567 7.48344C120.744 7.55091 120.918 7.62617 121.089 7.70921C121.26 7.79225 121.413 7.89605 121.548 8.02061C121.689 8.14518 121.798 8.29828 121.875 8.47994C121.958 8.66159 122 8.88736 122 9.15724C122 9.45308 121.925 9.72296 121.774 9.9669C121.629 10.2108 121.419 10.4029 121.144 10.543C120.869 10.6831 120.542 10.7532 120.163 10.7532C119.914 10.7532 119.675 10.7246 119.446 10.6676C119.223 10.6105 119.016 10.5378 118.824 10.4496C118.632 10.3562 118.46 10.2601 118.31 10.1615L118.645 9.56985C118.769 9.65809 118.912 9.74372 119.073 9.82676C119.234 9.90461 119.402 9.96949 119.579 10.0214C119.755 10.0681 119.927 10.0915 120.093 10.0915C120.269 10.0915 120.443 10.0603 120.614 9.99804C120.791 9.93057 120.936 9.82936 121.05 9.69442C121.164 9.55948 121.221 9.38042 121.221 9.15724C121.221 8.96521 121.17 8.80691 121.066 8.68235C120.967 8.5526 120.835 8.44361 120.669 8.35538C120.503 8.26195 120.326 8.17891 120.139 8.10625C119.963 8.03878 119.784 7.96612 119.602 7.88827C119.42 7.80523 119.252 7.70662 119.096 7.59243C118.94 7.47306 118.816 7.32774 118.722 7.15647C118.629 6.98519 118.582 6.77759 118.582 6.53366C118.582 6.23782 118.652 5.98091 118.792 5.76293C118.938 5.53976 119.135 5.36589 119.384 5.24133C119.633 5.11157 119.919 5.04151 120.241 5.03113C120.604 5.03113 120.923 5.07524 121.198 5.16348C121.478 5.25171 121.725 5.3607 121.938 5.49045L121.65 6.06655Z" fill="currentColor"/>
<path d="M113.036 5.06227H116.695V5.78629H113.791V7.49901H116.384V8.22303H113.791V9.9669H116.804V10.6909H113.036V5.06227Z" fill="currentColor"/>
<path d="M111.141 10.2705C111.048 10.3328 110.921 10.4029 110.76 10.4807C110.599 10.5586 110.41 10.6235 110.192 10.6754C109.979 10.7273 109.745 10.7532 109.491 10.7532C109.055 10.748 108.661 10.6702 108.308 10.5197C107.96 10.3691 107.664 10.1641 107.42 9.90463C107.176 9.64512 106.987 9.34669 106.852 9.00934C106.722 8.66679 106.657 8.30349 106.657 7.91942C106.657 7.49902 106.725 7.11236 106.86 6.75944C107 6.40132 107.194 6.09251 107.444 5.83301C107.693 5.56831 107.986 5.36331 108.323 5.21798C108.666 5.07266 109.039 5 109.444 5C109.782 5 110.088 5.04671 110.363 5.14013C110.638 5.22836 110.874 5.33476 111.071 5.45932L110.768 6.15998C110.612 6.05618 110.423 5.95757 110.199 5.86415C109.981 5.77073 109.738 5.72402 109.468 5.72402C109.193 5.72402 108.933 5.77851 108.689 5.8875C108.445 5.9965 108.23 6.1496 108.043 6.34683C107.856 6.54405 107.708 6.77501 107.599 7.0397C107.495 7.29921 107.444 7.57947 107.444 7.88049C107.444 8.18671 107.49 8.47216 107.584 8.73686C107.682 8.99636 107.82 9.22213 107.996 9.41416C108.178 9.6062 108.396 9.75671 108.65 9.8657C108.905 9.97469 109.19 10.0292 109.507 10.0292C109.792 10.0292 110.046 9.98507 110.27 9.89684C110.493 9.80861 110.677 9.71 110.822 9.60101L111.141 10.2705Z" fill="currentColor"/>
<path d="M104.013 5.06227H104.768V10.6909H104.013V5.06227Z" fill="currentColor"/>
<path d="M98.1995 5.06227L100.052 9.71777L99.6242 9.63214L101.384 5.06227H102.263L99.7799 10.9478L97.3042 5.06227H98.1995Z" fill="currentColor"/>
<path d="M93.7328 5.06227C94.0182 5.06227 94.2803 5.1012 94.5191 5.17905C94.763 5.25171 94.9732 5.3633 95.1497 5.51381C95.3313 5.65913 95.4715 5.84078 95.5701 6.05877C95.6739 6.27156 95.7258 6.52068 95.7258 6.80614C95.7258 7.02931 95.692 7.2473 95.6246 7.46009C95.5623 7.67288 95.4559 7.86751 95.3054 8.04397C95.1549 8.21525 94.9576 8.35538 94.7137 8.46437C94.475 8.56817 94.1791 8.62007 93.8262 8.62007H92.9932V10.6909H92.238V5.06227H93.7328ZM93.8106 7.89606C94.0338 7.89606 94.2181 7.86232 94.3634 7.79485C94.5139 7.72738 94.6307 7.64174 94.7137 7.53794C94.7967 7.42895 94.8564 7.31217 94.8928 7.18761C94.9291 7.06305 94.9473 6.94627 94.9473 6.83728C94.9473 6.7231 94.9265 6.60632 94.885 6.48695C94.8486 6.36239 94.7864 6.2482 94.6981 6.1444C94.6151 6.0406 94.5035 5.95497 94.3634 5.88749C94.2284 5.82002 94.0624 5.78629 93.8651 5.78629H92.9932V7.89606H93.8106ZM94.7371 8.32424L96.2084 10.6909H95.3365L93.8418 8.34759L94.7371 8.32424Z" fill="currentColor"/>
<path d="M86.5361 5.06227H90.1951V5.78629H87.2913V7.49901H89.8837V8.22303H87.2913V9.9669H90.3041V10.6909H86.5361V5.06227Z" fill="currentColor"/>
<path d="M84.2937 6.06655C84.1016 5.96794 83.8914 5.8823 83.6631 5.80964C83.4347 5.73698 83.2115 5.70065 82.9936 5.70065C82.6925 5.70065 82.4512 5.77072 82.2695 5.91085C82.0931 6.05098 82.0048 6.23782 82.0048 6.47138C82.0048 6.64784 82.0619 6.79835 82.1761 6.92291C82.2903 7.04228 82.4408 7.14609 82.6277 7.23432C82.8145 7.32255 83.0091 7.40559 83.2115 7.48344C83.388 7.55091 83.5619 7.62617 83.7331 7.70921C83.9044 7.79225 84.0575 7.89605 84.1925 8.02061C84.3326 8.14518 84.4416 8.29828 84.5194 8.47994C84.6025 8.66159 84.644 8.88736 84.644 9.15724C84.644 9.45308 84.5687 9.72296 84.4182 9.9669C84.2729 10.2108 84.0627 10.4029 83.7876 10.543C83.5126 10.6831 83.1856 10.7532 82.8067 10.7532C82.5576 10.7532 82.3188 10.7246 82.0905 10.6676C81.8673 10.6105 81.6597 10.5378 81.4677 10.4496C81.2756 10.3562 81.1044 10.2601 80.9539 10.1615L81.2886 9.56985C81.4132 9.65809 81.5559 9.74372 81.7168 9.82676C81.8777 9.90461 82.0464 9.96949 82.2228 10.0214C82.3993 10.0681 82.5706 10.0915 82.7367 10.0915C82.9131 10.0915 83.087 10.0603 83.2583 9.99804C83.4347 9.93057 83.58 9.82936 83.6942 9.69442C83.8084 9.55948 83.8655 9.38042 83.8655 9.15724C83.8655 8.96521 83.8136 8.80691 83.7098 8.68235C83.6112 8.5526 83.4788 8.44361 83.3127 8.35538C83.1467 8.26195 82.9702 8.17891 82.7834 8.10625C82.6069 8.03878 82.4278 7.96612 82.2462 7.88827C82.0645 7.80523 81.8959 7.70662 81.7402 7.59243C81.5845 7.47306 81.4599 7.32774 81.3665 7.15647C81.273 6.98519 81.2263 6.77759 81.2263 6.53366C81.2263 6.23782 81.2964 5.98091 81.4365 5.76293C81.5819 5.53976 81.7791 5.36589 82.0282 5.24133C82.2773 5.11157 82.5628 5.04151 82.8846 5.03113C83.2479 5.03113 83.5671 5.07524 83.8421 5.16348C84.1224 5.25171 84.3689 5.3607 84.5817 5.49045L84.2937 6.06655Z" fill="currentColor"/>
<path d="M72.6152 5.17125H76.2742V5.89527H73.3704V7.60799H75.9628V8.33201H73.3704V10.0759H76.3832V10.7999H72.6152V5.17125Z" fill="currentColor"/>
<path d="M68.8653 5.17125C69.2753 5.17125 69.6257 5.24132 69.9163 5.38145C70.207 5.51639 70.4301 5.71361 70.5858 5.97312C70.7467 6.23262 70.8272 6.54662 70.8272 6.91512C70.8272 7.13829 70.7934 7.35887 70.726 7.57685C70.6585 7.78965 70.5495 7.98427 70.399 8.16074C70.2537 8.33201 70.0616 8.46955 69.8229 8.57335C69.5841 8.67715 69.2935 8.72905 68.951 8.72905H68.118V10.7999H67.3628V5.17125H68.8653ZM68.9432 8.00503C69.1663 8.00503 69.3506 7.9687 69.4959 7.89604C69.6412 7.82338 69.7554 7.73255 69.8385 7.62356C69.9215 7.50938 69.9812 7.39001 70.0175 7.26545C70.0539 7.14089 70.072 7.0293 70.072 6.93069C70.072 6.8165 70.0539 6.69973 70.0175 6.58036C69.9812 6.45579 69.9189 6.34421 69.8307 6.2456C69.7476 6.14179 69.636 6.05875 69.4959 5.99647C69.361 5.929 69.1923 5.89527 68.9899 5.89527H68.118V8.00503H68.9432Z" fill="currentColor"/>
<path d="M59.7144 7.98947C59.7144 7.60022 59.787 7.23432 59.9323 6.89177C60.0829 6.54404 60.2905 6.23782 60.5551 5.97313C60.8198 5.70324 61.1235 5.49304 61.466 5.34253C61.8137 5.18683 62.1874 5.10898 62.5871 5.10898C62.9815 5.10898 63.35 5.18683 63.6926 5.34253C64.0403 5.49304 64.3465 5.70324 64.6112 5.97313C64.8811 6.23782 65.0913 6.54404 65.2418 6.89177C65.3923 7.23432 65.4676 7.60022 65.4676 7.98947C65.4676 8.38911 65.3923 8.7628 65.2418 9.11053C65.0913 9.45827 64.8811 9.76448 64.6112 10.0292C64.3465 10.2887 64.0403 10.4937 63.6926 10.6442C63.35 10.7895 62.9815 10.8622 62.5871 10.8622C62.1874 10.8622 61.8137 10.7895 61.466 10.6442C61.1235 10.4989 60.8198 10.2965 60.5551 10.037C60.2905 9.77746 60.0829 9.47384 59.9323 9.1261C59.787 8.77837 59.7144 8.39949 59.7144 7.98947ZM60.4929 7.99726C60.4929 8.29309 60.5474 8.57076 60.6564 8.83027C60.7653 9.08458 60.9159 9.31035 61.1079 9.50757C61.2999 9.70479 61.5231 9.8605 61.7774 9.97468C62.0317 10.0837 62.3068 10.1382 62.6026 10.1382C62.8933 10.1382 63.1658 10.0837 63.4201 9.97468C63.6744 9.8605 63.895 9.70479 64.0818 9.50757C64.2687 9.31035 64.4166 9.08458 64.5256 8.83027C64.6346 8.57076 64.689 8.2905 64.689 7.98947C64.689 7.69364 64.6346 7.41597 64.5256 7.15647C64.4166 6.89177 64.2661 6.66081 64.074 6.46359C63.882 6.26637 63.6588 6.11326 63.4045 6.00427C63.1502 5.89009 62.8777 5.83299 62.5871 5.83299C62.2912 5.83299 62.0162 5.89009 61.7618 6.00427C61.5075 6.11845 61.2844 6.27415 61.0923 6.47137C60.9003 6.6686 60.7524 6.89956 60.6486 7.16425C60.5448 7.42375 60.4929 7.70142 60.4929 7.99726Z" fill="currentColor"/>
<path d="M57.8205 5.17125V10.7999H57.0731V8.33201H54.1226V10.7999H53.3674V5.17125H54.1226V7.61578H57.0731V5.17125H57.8205Z" fill="currentColor"/>
<path d="M48.2186 10.3172C48.1408 10.3847 48.0318 10.4522 47.8916 10.5196C47.7515 10.5819 47.5958 10.639 47.4245 10.6909C47.2585 10.7428 47.0846 10.7843 46.9029 10.8155C46.7265 10.8466 46.5604 10.8622 46.4047 10.8622C45.9532 10.8622 45.5457 10.7921 45.1824 10.652C44.8243 10.5119 44.5155 10.3172 44.256 10.0681C44.0017 9.81898 43.8045 9.52574 43.6643 9.18838C43.5294 8.85103 43.4619 8.48513 43.4619 8.09068C43.4619 7.62357 43.5372 7.20577 43.6877 6.83728C43.8434 6.46359 44.0536 6.14959 44.3183 5.89528C44.5882 5.63577 44.897 5.44114 45.2447 5.31139C45.5924 5.17645 45.9609 5.10898 46.3502 5.10898C46.6772 5.10898 46.9808 5.1479 47.2611 5.22575C47.5413 5.30361 47.7878 5.40222 48.0006 5.52159L47.7437 6.21447C47.6399 6.15218 47.5102 6.09509 47.3545 6.04319C47.204 5.99129 47.0483 5.94977 46.8874 5.91863C46.7265 5.8823 46.576 5.86414 46.4358 5.86414C46.1037 5.86414 45.8026 5.91604 45.5328 6.01984C45.2629 6.11845 45.0319 6.26377 44.8399 6.4558C44.6478 6.64265 44.4999 6.87101 44.3961 7.14089C44.2923 7.40559 44.2404 7.70402 44.2404 8.03618C44.2404 8.3424 44.2923 8.62266 44.3961 8.87698C44.4999 9.13129 44.6478 9.35187 44.8399 9.53871C45.0319 9.72036 45.2603 9.86309 45.525 9.96689C45.7949 10.0655 46.0907 10.1148 46.4125 10.1148C46.6045 10.1148 46.7939 10.0966 46.9808 10.0603C47.1676 10.0188 47.3285 9.9617 47.4635 9.88904V8.76799H46.3424V8.04397H48.2186V10.3172Z" fill="currentColor"/>
<path d="M41.5468 10.979L37.1949 6.56481L37.4129 6.61931L37.4285 10.7999H36.6733V5H36.7123L41.0174 9.42973L40.8384 9.39081L40.8228 5.17127H41.5702V10.979H41.5468Z" fill="currentColor"/>
<path d="M33.6785 5.17125H34.4336V10.7999H33.6785V5.17125Z" fill="currentColor"/>
<path d="M27.8655 5.17125L29.7184 9.82675L29.2902 9.74112L31.0496 5.17125H31.9293L29.4459 11.0568L26.9702 5.17125H27.8655Z" fill="currentColor"/>
<path d="M24.4661 5.17125H25.2212V10.7999H24.4661V5.17125Z" fill="currentColor"/>
<path d="M19 5.17125H19.7552V10.0759H22.6123V10.7999H19V5.17125Z" fill="currentColor"/>
</svg>
