<svg width="185" height="88" viewBox="0 0 185 88" fill="none" xmlns="http://www.w3.org/2000/svg">
<path d="M64 66H80V73H29V66H45V38H64V66Z" fill={color}/>
<path d="M39.8154 21.4756C39.8945 21.5085 39.9732 21.5413 40.0508 21.5762L51.8359 12.9834L42.7969 23.5439C43.2134 24.005 43.5623 24.5106 43.834 25.0498L54.625 18.4912L91.6543 41H80V64H73V38H73.2432L54.625 26.6826L36 38.0039V64H29V41H17.5967L30.5781 33.1084C30.1814 32.8256 29.8152 32.5146 29.4873 32.1758L17.3262 32.71L27.9453 29.6992C27.735 29.0851 27.6201 28.437 27.6201 27.7666C27.6201 27.6931 27.6233 27.6199 27.626 27.5469L19.6582 25.7969L27.9951 25.6865C28.0399 25.5659 28.0893 25.4469 28.1416 25.3291L19.7773 17.2383L29.6816 23.165C29.9994 22.8597 30.3469 22.5761 30.7227 22.3203L26.7812 12.9834L32.8154 21.2754C32.9507 21.2285 33.0878 21.1847 33.2266 21.1436L34.0625 9.6748L35.8438 20.7422C35.9138 20.7408 35.9842 20.7383 36.0547 20.7383C36.2021 20.7383 36.3486 20.7408 36.4941 20.7471L42.9336 7.49219L39.8154 21.4756Z" fill={color}/>
<path fill-rule="evenodd" clip-rule="evenodd" d="M54.415 0.958984C83.264 0.959089 108.331 19.5923 108.331 44.4199C108.331 69.2477 83.2641 87.8808 54.415 87.8809C25.566 87.8808 0.500144 69.2477 0.5 44.4199C0.500246 19.5923 25.5661 0.959089 54.415 0.958984ZM54.415 4.95898C26.8479 4.95909 4.50025 22.6266 4.5 44.4199L4.50391 44.9297C4.84385 66.1487 26.369 83.3313 53.127 83.8672L54.415 83.8809C81.767 83.8808 103.981 66.4881 104.326 44.9297L104.331 44.4199C104.331 22.6266 81.9822 4.95909 54.415 4.95898Z" fill={color}/>
<path fill-rule="evenodd" clip-rule="evenodd" d="M133.11 68.6523C133.793 68.6523 134.401 68.7692 134.935 69.0039C135.479 69.2386 135.937 69.5536 136.311 69.9482C136.694 70.3429 136.983 70.8016 137.175 71.3242C137.377 71.8468 137.479 72.3908 137.479 72.9561C137.479 73.0945 137.474 73.2277 137.463 73.3555C137.463 73.4834 137.452 73.5905 137.431 73.6758H130.95C130.982 74.0063 131.063 74.2997 131.19 74.5557C131.318 74.8117 131.484 75.0306 131.687 75.2119C131.889 75.3932 132.119 75.5319 132.375 75.6279C132.631 75.7238 132.898 75.7715 133.175 75.7715C133.601 75.7714 134.002 75.6704 134.375 75.4678C134.759 75.2545 135.02 74.977 135.158 74.6357L136.999 75.1475C136.69 75.7874 136.193 76.3155 135.511 76.7314C134.839 77.1368 134.033 77.3398 133.095 77.3398C132.423 77.3398 131.815 77.2279 131.271 77.0039C130.727 76.7692 130.263 76.4542 129.879 76.0596C129.495 75.6649 129.196 75.2063 128.982 74.6836C128.78 74.1611 128.679 73.6119 128.679 73.0361C128.679 72.4388 128.78 71.8781 128.982 71.3555C129.185 70.8223 129.478 70.3584 129.862 69.9639C130.246 69.5585 130.711 69.2386 131.255 69.0039C131.809 68.7693 132.428 68.6524 133.11 68.6523ZM133.078 70.2041C132.79 70.2042 132.519 70.2576 132.263 70.3643C132.017 70.4603 131.798 70.5989 131.606 70.7803C131.415 70.9615 131.255 71.1798 131.127 71.4355C131.01 71.6915 130.94 71.9748 130.919 72.2842H135.271C135.217 71.6549 134.982 71.1536 134.566 70.7803C134.161 70.3963 133.665 70.2041 133.078 70.2041Z" fill={color}/>
<path fill-rule="evenodd" clip-rule="evenodd" d="M163.3 68.6523C163.982 68.6523 164.591 68.7692 165.124 69.0039C165.668 69.2386 166.127 69.5586 166.5 69.9639C166.884 70.3585 167.177 70.8172 167.38 71.3398C167.583 71.8625 167.684 72.4172 167.684 73.0039C167.684 73.5799 167.583 74.1297 167.38 74.6523C167.177 75.1749 166.889 75.6387 166.516 76.0439C166.142 76.4386 165.684 76.7536 165.14 76.9883C164.596 77.2229 163.982 77.3398 163.3 77.3398C162.617 77.3398 162.004 77.2229 161.46 76.9883C160.916 76.7536 160.451 76.4386 160.067 76.0439C159.694 75.6388 159.407 75.1747 159.204 74.6523C159.001 74.1297 158.899 73.5799 158.899 73.0039C158.899 72.4172 159.001 71.8625 159.204 71.3398C159.407 70.8173 159.694 70.3585 160.067 69.9639C160.451 69.5585 160.916 69.2386 161.46 69.0039C162.004 68.7693 162.617 68.6523 163.3 68.6523ZM163.3 70.4756C162.99 70.4756 162.702 70.54 162.436 70.668C162.169 70.796 161.934 70.9724 161.731 71.1963C161.54 71.4202 161.385 71.6869 161.268 71.9961C161.161 72.3054 161.107 72.6413 161.107 73.0039C161.107 73.3772 161.161 73.719 161.268 74.0283C161.385 74.3267 161.54 74.5877 161.731 74.8115C161.934 75.0354 162.169 75.2119 162.436 75.3398C162.702 75.4572 162.99 75.5156 163.3 75.5156C163.609 75.5156 163.897 75.4572 164.164 75.3398C164.431 75.2119 164.66 75.0355 164.852 74.8115C165.054 74.5875 165.209 74.321 165.315 74.0117C165.433 73.7025 165.492 73.3615 165.492 72.9883C165.492 72.6256 165.433 72.2888 165.315 71.9795C165.209 71.6704 165.054 71.4036 164.852 71.1797C164.66 70.9559 164.431 70.7853 164.164 70.668C163.897 70.54 163.609 70.4756 163.3 70.4756Z" fill={color}/>
<path d="M141.826 68.7959H143.586V70.4443H141.826V74.54C141.826 74.8384 141.901 75.0517 142.05 75.1797C142.21 75.297 142.402 75.3554 142.626 75.3555C142.85 75.3555 143.069 75.3188 143.282 75.2441C143.495 75.1695 143.666 75.1051 143.794 75.0518L144.227 76.748C143.939 76.876 143.586 77.0038 143.17 77.1318C142.754 77.2598 142.317 77.3242 141.858 77.3242C141.56 77.3242 141.276 77.2866 141.01 77.2119C140.754 77.1373 140.525 77.0202 140.322 76.8604C140.13 76.6897 139.976 76.4757 139.858 76.2197C139.741 75.9531 139.683 75.6331 139.683 75.2598V70.4443H138.578V68.7959H139.683V66.0762H141.826V68.7959Z" fill={color}/>
<path d="M124.473 73.2764V65.8359H126.681V77.1797H124.889L119.049 69.9004V77.1797H116.841V65.8203H118.553L124.473 73.2764Z" fill={color}/>
<path d="M149.391 75.1641L150.415 72.4443L148.942 68.8115H150.671L151.551 71.3877L152.447 68.8115H154.175L152.719 72.4443L153.727 75.1641L156.223 68.7959H158.255L154.751 77.1797H152.991L151.551 73.5L150.127 77.1797H148.367L144.879 68.7959H146.895L149.391 75.1641Z" fill={color}/>
<path d="M174.427 68.6836C174.491 68.6836 174.549 68.6896 174.603 68.7002V70.6523C173.952 70.6631 173.371 70.7909 172.859 71.0361C172.347 71.2708 171.979 71.6284 171.755 72.1084V77.1797H169.611V68.7959H171.579V70.5879C171.728 70.2999 171.905 70.0443 172.107 69.8203C172.31 69.5857 172.528 69.3826 172.763 69.2119C172.997 69.0413 173.232 68.9135 173.467 68.8281C173.712 68.7321 173.947 68.6836 174.171 68.6836H174.427Z" fill={color}/>
<path d="M178.423 72.5879L181.782 68.8115H184.07L180.95 72.3643L184.295 77.1797H182.007L179.574 73.5479L178.423 74.6836V77.1797H176.278V65.5H178.423V72.5879Z" fill={color}/>
<path fill-rule="evenodd" clip-rule="evenodd" d="M158.378 50.6523C159.029 50.6523 159.6 50.8009 160.091 51.0996C160.581 51.3876 160.987 51.777 161.307 52.2676V50.7959H163.179V58.7803C163.179 59.3988 163.061 59.9538 162.826 60.4443C162.592 60.9348 162.266 61.3511 161.851 61.6924C161.445 62.0337 160.954 62.2943 160.378 62.4756C159.813 62.6569 159.194 62.748 158.522 62.748C157.605 62.748 156.831 62.5935 156.202 62.2842C155.584 61.9855 155.051 61.5585 154.603 61.0039L155.771 59.8682C156.09 60.2627 156.491 60.5719 156.971 60.7959C157.461 61.0198 157.979 61.1318 158.522 61.1318C158.853 61.1318 159.168 61.0843 159.467 60.9883C159.776 60.903 160.048 60.7641 160.282 60.5723C160.517 60.3803 160.698 60.1346 160.826 59.8359C160.965 59.5374 161.034 59.1855 161.034 58.7803V57.7236C160.757 58.2036 160.368 58.5771 159.866 58.8438C159.365 59.0997 158.826 59.2275 158.25 59.2275C157.685 59.2275 157.172 59.1156 156.714 58.8916C156.255 58.6676 155.856 58.3634 155.515 57.9795C155.184 57.5849 154.927 57.132 154.746 56.6201C154.565 56.1082 154.475 55.5641 154.475 54.9883C154.475 54.3803 154.571 53.8147 154.763 53.292C154.955 52.7693 155.221 52.3107 155.562 51.916C155.904 51.5215 156.314 51.2123 156.794 50.9883C157.274 50.7643 157.802 50.6524 158.378 50.6523ZM158.843 52.4756C158.512 52.4756 158.213 52.5509 157.946 52.7002C157.68 52.8389 157.451 53.0311 157.259 53.2764C157.067 53.511 156.917 53.7826 156.811 54.0918C156.715 54.4011 156.666 54.7211 156.666 55.0518C156.666 55.3931 156.725 55.7131 156.843 56.0117C156.96 56.3104 157.12 56.5719 157.322 56.7959C157.536 57.0199 157.781 57.1962 158.059 57.3242C158.336 57.4521 158.64 57.5156 158.971 57.5156C159.205 57.5156 159.429 57.4789 159.643 57.4043C159.856 57.3296 160.053 57.2276 160.234 57.0996C160.415 56.9718 160.575 56.8228 160.714 56.6523C160.852 56.4818 160.96 56.3002 161.034 56.1084V54.1084C160.842 53.6177 160.538 53.2225 160.122 52.9238C159.717 52.6254 159.291 52.4757 158.843 52.4756Z" fill={color}/>
<path d="M119.049 57.2441H124.841V59.1797H116.841V47.8203H119.049V57.2441Z" fill={color}/>
<path d="M128.601 59.1797H126.457V50.7959H128.601V59.1797Z" fill={color}/>
<path d="M134.519 57.4355L136.663 50.7959H138.679L135.591 59.1797H133.271L130.183 50.7959H132.391L134.519 57.4355Z" fill={color}/>
<path d="M142.42 59.1797H140.276V50.7959H142.42V59.1797Z" fill={color}/>
<path d="M150.098 50.6523C150.62 50.6523 151.047 50.7476 151.378 50.9395C151.709 51.1315 151.965 51.383 152.146 51.6924C152.328 52.0016 152.45 52.3536 152.514 52.748C152.588 53.1427 152.626 53.5429 152.626 53.9482V59.1797H150.482V54.4756C150.482 53.8038 150.365 53.3132 150.13 53.0039C149.895 52.6947 149.57 52.5401 149.154 52.54C148.941 52.54 148.722 52.5826 148.498 52.668C148.274 52.7533 148.061 52.8762 147.858 53.0361C147.666 53.1855 147.49 53.3667 147.33 53.5801C147.17 53.7934 147.053 54.0282 146.979 54.2842V59.1797H144.834V50.7959H146.771V52.3477C147.08 51.8145 147.528 51.3982 148.114 51.0996C148.701 50.8011 149.362 50.6524 150.098 50.6523Z" fill={color}/>
<path d="M128.601 49.6279H126.457V47.5H128.601V49.6279Z" fill={color}/>
<path d="M142.42 49.6279H140.276V47.5H142.42V49.6279Z" fill={color}/>
<path fill-rule="evenodd" clip-rule="evenodd" d="M130.797 32.6523C131.479 32.6523 132.088 32.7693 132.621 33.0039C133.165 33.2385 133.624 33.5586 133.997 33.9639C134.381 34.3585 134.674 34.8173 134.877 35.3398C135.08 35.8625 135.182 36.4172 135.182 37.0039C135.182 37.5799 135.08 38.1297 134.877 38.6523C134.674 39.1747 134.387 39.6388 134.014 40.0439C133.64 40.4386 133.182 40.7536 132.638 40.9883C132.094 41.2229 131.48 41.3398 130.797 41.3398C130.114 41.3398 129.501 41.2229 128.957 40.9883C128.413 40.7536 127.949 40.4386 127.565 40.0439C127.192 39.6387 126.904 39.1749 126.701 38.6523C126.499 38.1297 126.397 37.5799 126.397 37.0039C126.397 36.4172 126.499 35.8625 126.701 35.3398C126.904 34.8172 127.192 34.3585 127.565 33.9639C127.949 33.5586 128.413 33.2385 128.957 33.0039C129.501 32.7693 130.114 32.6524 130.797 32.6523ZM130.797 34.4756C130.488 34.4756 130.2 34.5401 129.934 34.668C129.667 34.796 129.432 34.9723 129.229 35.1963C129.038 35.4203 128.883 35.6868 128.766 35.9961C128.659 36.3054 128.605 36.6413 128.605 37.0039C128.605 37.3772 128.659 37.719 128.766 38.0283C128.883 38.3267 129.038 38.5877 129.229 38.8115C129.432 39.0355 129.667 39.2118 129.934 39.3398C130.2 39.4571 130.488 39.5156 130.797 39.5156C131.106 39.5156 131.395 39.4571 131.661 39.3398C131.928 39.2118 132.158 39.0355 132.35 38.8115C132.552 38.5876 132.707 38.3209 132.813 38.0117C132.931 37.7025 132.989 37.3614 132.989 36.9883C132.989 36.6256 132.931 36.2888 132.813 35.9795C132.707 35.6703 132.552 35.4036 132.35 35.1797C132.158 34.9557 131.928 34.7853 131.661 34.668C131.395 34.54 131.106 34.4756 130.797 34.4756Z" fill={color}/>
<path fill-rule="evenodd" clip-rule="evenodd" d="M139.253 34.2676C139.552 33.7558 139.941 33.3612 140.421 33.084C140.911 32.7961 141.482 32.6523 142.133 32.6523C142.677 32.6524 143.172 32.7694 143.62 33.0039C144.068 33.2386 144.452 33.5536 144.772 33.9482C145.103 34.3428 145.354 34.8066 145.524 35.3398C145.706 35.8731 145.797 36.433 145.797 37.0195C145.797 37.6275 145.695 38.1932 145.492 38.7158C145.3 39.2384 145.029 39.6972 144.677 40.0918C144.325 40.4757 143.909 40.7799 143.429 41.0039C142.949 41.2279 142.431 41.3398 141.876 41.3398C141.236 41.3398 140.665 41.1961 140.164 40.9082C139.663 40.6202 139.268 40.2249 138.98 39.7236V41.1797H137.108V29.5H139.253V34.2676ZM141.412 34.4756C140.932 34.4757 140.5 34.6361 140.116 34.9561C139.743 35.2654 139.456 35.6498 139.253 36.1084V38.1084C139.328 38.3214 139.434 38.5132 139.572 38.6836C139.722 38.8542 139.887 39.0039 140.068 39.1318C140.25 39.2491 140.447 39.3453 140.66 39.4199C140.873 39.4839 141.082 39.5156 141.284 39.5156C141.625 39.5156 141.941 39.4522 142.229 39.3242C142.517 39.1856 142.762 39.0043 142.965 38.7803C143.167 38.5563 143.322 38.2947 143.429 37.9961C143.546 37.6975 143.604 37.3774 143.604 37.0361C143.604 36.6948 143.551 36.3689 143.444 36.0596C143.338 35.7504 143.183 35.4787 142.98 35.2441C142.788 35.0095 142.559 34.8223 142.292 34.6836C142.025 34.5451 141.732 34.4756 141.412 34.4756Z" fill={color}/>
<path fill-rule="evenodd" clip-rule="evenodd" d="M151.633 32.6523C152.315 32.6523 152.924 32.7693 153.457 33.0039C154.001 33.2386 154.46 33.5536 154.833 33.9482C155.217 34.3429 155.505 34.8016 155.697 35.3242C155.9 35.8468 156.001 36.3908 156.001 36.9561C156.001 37.0945 155.996 37.2277 155.985 37.3555C155.985 37.4834 155.974 37.5905 155.953 37.6758H149.473C149.505 38.0063 149.585 38.2997 149.713 38.5557C149.841 38.8116 150.006 39.0306 150.209 39.2119C150.412 39.3932 150.641 39.5319 150.897 39.6279C151.153 39.7238 151.42 39.7715 151.697 39.7715C152.124 39.7715 152.524 39.6704 152.897 39.4678C153.281 39.2545 153.542 38.977 153.681 38.6357L155.521 39.1475C155.212 39.7874 154.716 40.3155 154.033 40.7314C153.361 41.1368 152.556 41.3398 151.617 41.3398C150.945 41.3398 150.337 41.2279 149.793 41.0039C149.249 40.7692 148.785 40.4542 148.401 40.0596C148.017 39.6649 147.718 39.2062 147.505 38.6836C147.302 38.1611 147.201 37.6119 147.201 37.0361C147.201 36.4388 147.302 35.8781 147.505 35.3555C147.708 34.8223 148.001 34.3584 148.385 33.9639C148.769 33.5585 149.233 33.2386 149.777 33.0039C150.332 32.7693 150.95 32.6524 151.633 32.6523ZM151.602 34.2041C151.314 34.2041 151.041 34.2576 150.785 34.3643C150.54 34.4603 150.321 34.599 150.129 34.7803C149.937 34.9615 149.777 35.1799 149.649 35.4355C149.532 35.6915 149.463 35.9748 149.441 36.2842H153.793C153.74 35.6549 153.505 35.1536 153.089 34.7803C152.684 34.3964 152.188 34.2042 151.602 34.2041Z" fill={color}/>
<path d="M120.617 29.7402C121.417 29.7403 122.153 29.8681 122.825 30.124C123.497 30.3693 124.084 30.6626 124.585 31.0039L123.608 32.7959C123.534 32.7213 123.395 32.6201 123.192 32.4922C123 32.3642 122.761 32.2413 122.473 32.124C122.195 31.996 121.891 31.889 121.561 31.8037C121.23 31.7184 120.894 31.6758 120.553 31.6758C119.945 31.6758 119.491 31.7877 119.192 32.0117C118.894 32.2357 118.745 32.5508 118.745 32.9561C118.745 33.1907 118.799 33.3879 118.905 33.5479C119.023 33.6971 119.187 33.831 119.4 33.9482C119.614 34.0656 119.881 34.1716 120.201 34.2676C120.532 34.3636 120.91 34.4656 121.337 34.5723C121.891 34.7216 122.393 34.8811 122.841 35.0518C123.299 35.2224 123.684 35.4364 123.993 35.6924C124.313 35.9483 124.558 36.2576 124.729 36.6201C124.899 36.972 124.984 37.4091 124.984 37.9316C124.984 38.5396 124.867 39.0627 124.633 39.5C124.409 39.9266 124.1 40.2734 123.705 40.54C123.321 40.8067 122.872 41.0038 122.36 41.1318C121.859 41.2491 121.331 41.3076 120.776 41.3076C119.923 41.3076 119.081 41.1798 118.249 40.9238C117.417 40.6678 116.67 40.3053 116.009 39.8359L116.984 37.9316C117.08 38.0276 117.252 38.1564 117.497 38.3164C117.753 38.4657 118.051 38.6204 118.393 38.7803C118.734 38.9296 119.113 39.0574 119.529 39.1641C119.945 39.2706 120.372 39.3242 120.809 39.3242C122.024 39.3242 122.633 38.9347 122.633 38.1562C122.633 37.911 122.563 37.7029 122.425 37.5322C122.286 37.3616 122.089 37.212 121.833 37.084C121.577 36.956 121.268 36.8381 120.905 36.7314C120.543 36.6248 120.136 36.5079 119.688 36.3799C119.145 36.2306 118.67 36.071 118.265 35.9004C117.87 35.7191 117.539 35.511 117.272 35.2764C117.006 35.0311 116.804 34.7535 116.665 34.4443C116.537 34.1243 116.473 33.745 116.473 33.3076C116.473 32.7317 116.58 32.2194 116.793 31.7715C117.006 31.3237 117.3 30.9509 117.673 30.6523C118.057 30.3537 118.5 30.1288 119.001 29.9795C119.502 29.8195 120.041 29.7402 120.617 29.7402Z" fill={color}/>
<path d="M162.604 32.6836C162.667 32.6836 162.726 32.6895 162.779 32.7002V34.6523C162.129 34.663 161.547 34.7908 161.035 35.0361C160.523 35.2708 160.156 35.6284 159.932 36.1084V41.1797H157.787V32.7959H159.755V34.5879C159.904 34.3 160.081 34.0443 160.283 33.8203C160.486 33.5856 160.705 33.3826 160.939 33.2119C161.174 33.0413 161.409 32.9134 161.644 32.8281C161.889 32.7322 162.124 32.6836 162.348 32.6836H162.604Z" fill={color}/>
<path fill-rule="evenodd" clip-rule="evenodd" d="M141.06 14.6523C141.742 14.6524 142.351 14.7693 142.884 15.0039C143.428 15.2386 143.887 15.5537 144.26 15.9482C144.644 16.3428 144.931 16.8017 145.123 17.3242C145.326 17.8468 145.428 18.3908 145.428 18.9561C145.428 19.0945 145.422 19.2276 145.411 19.3555C145.411 19.4835 145.4 19.5905 145.379 19.6758H138.899C138.931 20.0064 139.012 20.2997 139.14 20.5557C139.268 20.8117 139.433 21.0306 139.636 21.2119C139.838 21.3931 140.067 21.532 140.323 21.6279C140.579 21.7239 140.846 21.7715 141.123 21.7715C141.55 21.7715 141.95 21.6704 142.323 21.4678C142.707 21.2544 142.969 20.9771 143.107 20.6357L144.947 21.1475C144.638 21.7875 144.142 22.3154 143.459 22.7314C142.787 23.1368 141.982 23.3398 141.043 23.3398C140.371 23.3398 139.764 23.2278 139.22 23.0039C138.676 22.7692 138.211 22.4542 137.827 22.0596C137.443 21.665 137.145 21.2061 136.932 20.6836C136.729 20.161 136.627 19.612 136.627 19.0361C136.627 18.4388 136.729 17.8781 136.932 17.3555C137.134 16.8223 137.428 16.3584 137.812 15.9639C138.195 15.5586 138.659 15.2385 139.203 15.0039C139.758 14.7692 140.377 14.6523 141.06 14.6523ZM141.027 16.2041C140.739 16.2041 140.467 16.2576 140.211 16.3643C139.966 16.4603 139.748 16.5991 139.556 16.7803C139.364 16.9615 139.203 17.1797 139.075 17.4355C138.958 17.6915 138.889 17.9748 138.867 18.2842H143.22C143.166 17.655 142.931 17.1536 142.516 16.7803C142.11 16.3963 141.614 16.2041 141.027 16.2041Z" fill={color}/>
<path d="M125.337 13.7559H121.705V23.1797H119.513V13.7559H115.881V11.8203H125.337V13.7559Z" fill={color}/>
<path d="M129.163 16.3477C129.472 15.8038 129.889 15.3876 130.411 15.0996C130.944 14.801 131.531 14.6524 132.171 14.6523C132.715 14.6523 133.158 14.7475 133.499 14.9395C133.84 15.1207 134.107 15.3666 134.299 15.6758C134.491 15.9851 134.625 16.3378 134.699 16.7324C134.774 17.1269 134.812 17.5324 134.812 17.9482V23.1797H132.667V18.4756C132.667 17.8144 132.544 17.3288 132.299 17.0195C132.054 16.6998 131.707 16.54 131.259 16.54C131.067 16.5401 130.865 16.5827 130.651 16.668C130.438 16.7533 130.235 16.8761 130.043 17.0361C129.851 17.1854 129.675 17.3668 129.515 17.5801C129.355 17.7933 129.238 18.0283 129.163 18.2842V23.1797H127.02V11.5H129.163V16.3477Z" fill={color}/>
</svg>
